<svg width="106" height="130" viewBox="0 0 106 130" fill="none" xmlns="http://www.w3.org/2000/svg">
<path d="M17.4551 0C20.5013 0 22.9706 2.46942 22.9707 5.51562V102.975C22.9707 103.978 22.7005 104.917 22.2324 105.728C22.2756 106.181 22.2109 106.655 22.0127 107.117L14.1016 125.548C13.1149 127.846 9.85577 127.846 8.86914 125.548L0.958008 107.117C0.75981 106.655 0.694132 106.181 0.737305 105.728C0.269387 104.917 4.42958e-05 103.978 0 102.975V5.51562C6.72465e-05 2.46946 2.46946 6.84644e-05 5.51562 0H17.4551Z" fill="#A190F1"/>
<circle cx="35.9408" cy="35.9408" r="26.5649" transform="matrix(1.19249e-08 -1 -1 -1.19249e-08 97.6653 71.8818)" stroke="#00D098" stroke-width="18.7517"/>
<path d="M95.7901 119.542L34.847 76.2573" stroke="#00D098" stroke-width="20.0018" stroke-linecap="round"/>
</svg>
