<svg width="60" height="60" viewBox="0 0 60 60" fill="none" xmlns="http://www.w3.org/2000/svg">
<g filter="url(#filter0_d_846_7692)">
<rect x="10" y="6" width="40" height="40" rx="20" fill="url(#paint0_linear_846_7692)" shape-rendering="crispEdges"/>
<rect x="10.5" y="6.5" width="39" height="39" rx="19.5" stroke="white" shape-rendering="crispEdges"/>
<path d="M29.5739 31.571C28.2457 31.571 27.0348 31.3473 25.9411 30.8999C24.8473 30.4524 23.9062 29.8203 23.1179 29.0036C22.3295 28.1868 21.7223 27.2209 21.2962 26.1058C20.87 24.9908 20.657 23.7585 20.657 22.4091V20.2464C20.657 19.4013 21.0511 18.6591 21.8395 18.0199C22.6278 17.3807 23.7251 16.8835 25.1314 16.5284C26.5447 16.1662 28.1854 15.9851 30.0533 15.9851C31.9212 15.9851 33.5582 16.1662 34.9645 16.5284C36.3778 16.8835 37.4787 17.3807 38.267 18.0199C39.0554 18.6591 39.4496 19.4013 39.4496 20.2464V22.4091C39.4496 23.8011 39.2365 25.0618 38.8104 26.1911C38.3842 27.3132 37.777 28.2756 36.9886 29.0781C36.2003 29.8807 35.2592 30.4986 34.1655 30.9318C33.0788 31.358 31.8679 31.571 30.5327 31.571H29.5739ZM30.0533 22.8459C31.5447 22.8459 32.8729 22.7322 34.0376 22.505C35.2024 22.2706 36.1186 21.9581 36.7862 21.5675C37.4609 21.1768 37.7983 20.7365 37.7983 20.2464C37.7983 19.7564 37.4609 19.316 36.7862 18.9254C36.1186 18.5348 35.2024 18.2259 34.0376 17.9986C32.8729 17.7642 31.5447 17.647 30.0533 17.647C28.5689 17.647 27.2443 17.7642 26.0795 17.9986C24.9148 18.2259 23.995 18.5348 23.3203 18.9254C22.6527 19.316 22.3189 19.7564 22.3189 20.2464C22.3189 20.7365 22.6527 21.1768 23.3203 21.5675C23.995 21.9581 24.9148 22.2706 26.0795 22.505C27.2443 22.7322 28.5689 22.8459 30.0533 22.8459ZM38.299 26.8622V25.2109H39.1406C39.8153 25.2109 40.3409 25.0653 40.7173 24.7741C41.0938 24.4759 41.282 24.0675 41.282 23.549C41.282 23.0305 41.0938 22.6257 40.7173 22.3345C40.3409 22.0362 39.8153 21.8871 39.1406 21.8871H38.4588V20.2358H39.1406C40.3196 20.2358 41.2465 20.5305 41.9212 21.12C42.603 21.7095 42.9439 22.5192 42.9439 23.549C42.9439 24.5788 42.6065 25.3885 41.9318 25.978C41.2571 26.5675 40.3267 26.8622 39.1406 26.8622H38.299ZM30 36.674C27.9759 36.674 26.1186 36.5391 24.4283 36.2692C22.745 35.9993 21.2855 35.6122 20.0497 35.108C18.8139 34.6037 17.8551 34.0071 17.1733 33.3182C16.4986 32.6293 16.1612 31.8658 16.1612 31.0277C16.1612 30.1683 16.5199 29.3871 17.2372 28.6839C17.9545 27.9737 18.9595 27.3665 20.2521 26.8622C20.7635 28.0767 21.4702 29.1278 22.3722 30.0156C23.2741 30.9034 24.3359 31.5923 25.5575 32.0824C26.7791 32.5724 28.1179 32.8175 29.5739 32.8175H30.5327C32.5 32.8175 34.233 32.402 35.7315 31.571C37.2372 30.7401 38.4126 29.5859 39.2578 28.1087C39.6626 28.0945 40.0391 28.0518 40.3871 27.9808C40.7422 27.9098 41.0795 27.8068 41.3991 27.6719C42.1733 28.1264 42.7734 28.6378 43.1996 29.206C43.6257 29.7741 43.8388 30.3814 43.8388 31.0277C43.8388 31.8658 43.5014 32.6293 42.8267 33.3182C42.152 34.0071 41.1967 34.6037 39.9609 35.108C38.7251 35.6122 37.2621 35.9993 35.5717 36.2692C33.8814 36.5391 32.0241 36.674 30 36.674Z" fill="white"/>
</g>
<defs>
<filter id="filter0_d_846_7692" x="0" y="0" width="60" height="60" filterUnits="userSpaceOnUse" color-interpolation-filters="sRGB">
<feFlood flood-opacity="0" result="BackgroundImageFix"/>
<feColorMatrix in="SourceAlpha" type="matrix" values="0 0 0 0 0 0 0 0 0 0 0 0 0 0 0 0 0 0 127 0" result="hardAlpha"/>
<feOffset dy="4"/>
<feGaussianBlur stdDeviation="5"/>
<feComposite in2="hardAlpha" operator="out"/>
<feColorMatrix type="matrix" values="0 0 0 0 0 0 0 0 0 0 0 0 0 0 0 0 0 0 0.25 0"/>
<feBlend mode="normal" in2="BackgroundImageFix" result="effect1_dropShadow_846_7692"/>
<feBlend mode="normal" in="SourceGraphic" in2="effect1_dropShadow_846_7692" result="shape"/>
</filter>
<linearGradient id="paint0_linear_846_7692" x1="30" y1="6" x2="30" y2="46" gradientUnits="userSpaceOnUse">
<stop stop-color="#FF8000"/>
<stop offset="1" stop-color="#F04C00"/>
</linearGradient>
</defs>
</svg>
