<svg width="313" height="54" viewBox="0 0 313 54" fill="none" xmlns="http://www.w3.org/2000/svg">
<rect width="313" height="54" rx="14" fill="black"/>
<path d="M79.7622 34.3247C78.7231 34.3247 77.8201 34.167 77.0532 33.8516C76.2925 33.5299 75.6925 33.0815 75.2534 32.5063C74.8143 31.9312 74.5638 31.257 74.502 30.4839L74.4927 30.354H76.8213L76.8306 30.4468C76.8739 30.8241 77.0254 31.1519 77.2852 31.4302C77.5449 31.7085 77.8944 31.9281 78.3335 32.0889C78.7726 32.2435 79.2736 32.3208 79.8364 32.3208C80.3807 32.3208 80.8569 32.2373 81.2651 32.0703C81.6795 31.9033 82.0011 31.6745 82.23 31.3838C82.465 31.0869 82.5825 30.7498 82.5825 30.3726V30.3633C82.5825 29.8747 82.3939 29.4788 82.0166 29.1758C81.6455 28.8665 81.027 28.6222 80.1611 28.4429L78.7231 28.1367C77.3563 27.8522 76.3605 27.3914 75.7358 26.7544C75.1112 26.1174 74.7988 25.2979 74.7988 24.2959V24.2866C74.7988 23.4888 75.0091 22.7899 75.4297 22.1899C75.8564 21.59 76.4409 21.123 77.1831 20.7891C77.9315 20.4551 78.7881 20.2881 79.7529 20.2881C80.7425 20.2881 81.5991 20.4551 82.3228 20.7891C83.0464 21.1169 83.6154 21.5653 84.0298 22.1343C84.4442 22.7033 84.6761 23.3465 84.7256 24.064L84.7349 24.1938H82.4526L82.4341 24.0825C82.3784 23.73 82.2331 23.4207 81.998 23.1548C81.7692 22.8826 81.4631 22.6724 81.0796 22.5239C80.6961 22.3693 80.2477 22.292 79.7344 22.292C79.2396 22.292 78.8005 22.3693 78.417 22.5239C78.0397 22.6724 77.7397 22.8826 77.5171 23.1548C77.3006 23.4269 77.1924 23.7547 77.1924 24.1382V24.1475C77.1924 24.6175 77.3748 25.0072 77.7397 25.3164C78.1108 25.6195 78.7139 25.8576 79.5488 26.0308L80.9868 26.3369C81.9269 26.5348 82.6908 26.7977 83.2783 27.1255C83.8659 27.4533 84.2957 27.8615 84.5679 28.3501C84.8462 28.8325 84.9854 29.4139 84.9854 30.0942V30.1035C84.9854 30.9694 84.772 31.7178 84.3452 32.3486C83.9246 32.9795 83.3216 33.4681 82.5361 33.8145C81.7568 34.1546 80.8322 34.3247 79.7622 34.3247ZM87.3789 34V23.8877H89.689V34H87.3789ZM88.5386 22.2178C88.1675 22.2178 87.8459 22.0848 87.5737 21.8188C87.3078 21.5529 87.1748 21.2344 87.1748 20.8633C87.1748 20.486 87.3078 20.1675 87.5737 19.9077C87.8459 19.6418 88.1675 19.5088 88.5386 19.5088C88.922 19.5088 89.2467 19.6418 89.5127 19.9077C89.7786 20.1675 89.9116 20.486 89.9116 20.8633C89.9116 21.2344 89.7786 21.5529 89.5127 21.8188C89.2467 22.0848 88.922 22.2178 88.5386 22.2178ZM96.8232 37.5532C95.9326 37.5532 95.1657 37.4326 94.5225 37.1914C93.8792 36.9564 93.369 36.6255 92.9917 36.1987C92.6206 35.772 92.3949 35.2772 92.3145 34.7144V34.6772H94.6245L94.6338 34.7144C94.7204 35.036 94.9523 35.2988 95.3296 35.5029C95.7069 35.707 96.2171 35.8091 96.8604 35.8091C97.6458 35.8091 98.255 35.6297 98.688 35.271C99.1209 34.9185 99.3374 34.4206 99.3374 33.7773V31.8755H99.189C98.9972 32.2404 98.7498 32.5496 98.4468 32.8032C98.1437 33.0506 97.7943 33.2393 97.3984 33.3691C97.0026 33.499 96.5728 33.564 96.1089 33.564C95.2554 33.564 94.5163 33.3599 93.8916 32.9517C93.2669 32.5373 92.7876 31.9652 92.4536 31.2354C92.1196 30.5055 91.9526 29.6613 91.9526 28.7026V28.6841C91.9526 27.7007 92.1196 26.8379 92.4536 26.0957C92.7938 25.3473 93.2762 24.766 93.9009 24.3516C94.5317 23.931 95.2801 23.7207 96.146 23.7207C96.616 23.7207 97.0459 23.7949 97.4355 23.9434C97.8314 24.0918 98.1777 24.3021 98.4746 24.5742C98.7777 24.8464 99.0251 25.1742 99.2168 25.5576H99.3281V23.8877H101.638V33.7495C101.638 34.5226 101.44 35.1937 101.044 35.7627C100.655 36.3317 100.098 36.7708 99.3745 37.0801C98.6571 37.3955 97.8066 37.5532 96.8232 37.5532ZM96.814 31.7271C97.3459 31.7271 97.8005 31.6003 98.1777 31.3467C98.5612 31.0931 98.855 30.7406 99.0591 30.2891C99.2694 29.8314 99.3745 29.3026 99.3745 28.7026V28.6841C99.3745 28.0841 99.2694 27.5553 99.0591 27.0977C98.855 26.6338 98.5612 26.2751 98.1777 26.0215C97.8005 25.7679 97.3459 25.6411 96.814 25.6411C96.2882 25.6411 95.8368 25.7679 95.4595 26.0215C95.0884 26.2751 94.8039 26.6307 94.606 27.0884C94.408 27.5461 94.3091 28.0749 94.3091 28.6748V28.6934C94.3091 29.2995 94.408 29.8314 94.606 30.2891C94.8039 30.7406 95.0884 31.0931 95.4595 31.3467C95.8368 31.6003 96.2882 31.7271 96.814 31.7271ZM104.366 34V23.8877H106.676V25.437H106.824C107.072 24.8927 107.44 24.466 107.928 24.1567C108.417 23.8475 109.026 23.6929 109.756 23.6929C110.888 23.6929 111.75 24.0207 112.344 24.6763C112.944 25.3319 113.244 26.2596 113.244 27.4595V34H110.934V27.9883C110.934 27.209 110.767 26.6214 110.433 26.2256C110.105 25.8298 109.595 25.6318 108.902 25.6318C108.445 25.6318 108.049 25.7339 107.715 25.938C107.387 26.1421 107.13 26.4297 106.945 26.8008C106.765 27.1657 106.676 27.6017 106.676 28.1089V34H104.366ZM120.87 34V23.8877H123.18V34H120.87ZM122.03 22.2178C121.659 22.2178 121.337 22.0848 121.065 21.8188C120.799 21.5529 120.666 21.2344 120.666 20.8633C120.666 20.486 120.799 20.1675 121.065 19.9077C121.337 19.6418 121.659 19.5088 122.03 19.5088C122.413 19.5088 122.738 19.6418 123.004 19.9077C123.27 20.1675 123.403 20.486 123.403 20.8633C123.403 21.2344 123.27 21.5529 123.004 21.8188C122.738 22.0848 122.413 22.2178 122.03 22.2178ZM125.945 34V23.8877H128.255V25.437H128.403C128.651 24.8927 129.019 24.466 129.507 24.1567C129.996 23.8475 130.605 23.6929 131.335 23.6929C132.467 23.6929 133.33 24.0207 133.923 24.6763C134.523 25.3319 134.823 26.2596 134.823 27.4595V34H132.513V27.9883C132.513 27.209 132.346 26.6214 132.012 26.2256C131.684 25.8298 131.174 25.6318 130.481 25.6318C130.024 25.6318 129.628 25.7339 129.294 25.938C128.966 26.1421 128.709 26.4297 128.524 26.8008C128.345 27.1657 128.255 27.6017 128.255 28.1089V34H125.945ZM144.36 34L141.614 23.8877H143.934L145.613 31.5044H145.771L147.719 23.8877H149.917L151.875 31.5044H152.023L153.703 23.8877H155.994L153.248 34H150.836L148.86 26.6616H148.711L146.745 34H144.36ZM157.942 34V23.8877H160.252V34H157.942ZM159.102 22.2178C158.731 22.2178 158.409 22.0848 158.137 21.8188C157.871 21.5529 157.738 21.2344 157.738 20.8633C157.738 20.486 157.871 20.1675 158.137 19.9077C158.409 19.6418 158.731 19.5088 159.102 19.5088C159.486 19.5088 159.81 19.6418 160.076 19.9077C160.342 20.1675 160.475 20.486 160.475 20.8633C160.475 21.2344 160.342 21.5529 160.076 21.8188C159.81 22.0848 159.486 22.2178 159.102 22.2178ZM166.979 34.0649C165.828 34.0649 164.996 33.8516 164.483 33.4248C163.97 32.9919 163.713 32.2868 163.713 31.3096V25.6782H162.164V23.8877H163.713V21.4014H166.06V23.8877H168.175V25.6782H166.06V30.79C166.06 31.2972 166.165 31.6652 166.375 31.894C166.592 32.1167 166.938 32.228 167.415 32.228C167.575 32.228 167.708 32.2249 167.813 32.2188C167.925 32.2064 168.045 32.194 168.175 32.1816V33.9629C168.014 33.9876 167.832 34.0093 167.628 34.0278C167.424 34.0526 167.207 34.0649 166.979 34.0649ZM170.513 34V20.0005H172.823V25.4463H172.972C173.213 24.902 173.578 24.4753 174.066 24.166C174.561 23.8506 175.174 23.6929 175.903 23.6929C176.658 23.6929 177.292 23.8413 177.805 24.1382C178.325 24.4351 178.721 24.8649 178.993 25.4277C179.265 25.9906 179.401 26.674 179.401 27.478V34H177.091V28.0068C177.091 27.2214 176.924 26.6307 176.59 26.2349C176.256 25.8328 175.743 25.6318 175.05 25.6318C174.592 25.6318 174.196 25.7339 173.862 25.938C173.528 26.1421 173.272 26.4297 173.092 26.8008C172.913 27.1657 172.823 27.6017 172.823 28.1089V34H170.513ZM186.266 34L191.025 20.6128H193.001V23.0898H192.296L188.771 34H186.266ZM188.66 30.5396L189.291 28.6934H195.423L196.054 30.5396H188.66ZM195.961 34L192.445 23.0898V20.6128H193.716L198.475 34H195.961ZM200.46 37.3584V23.8877H202.771V25.4927H202.919C203.104 25.1154 203.346 24.7969 203.643 24.5371C203.946 24.2773 204.295 24.0763 204.691 23.9341C205.087 23.7918 205.523 23.7207 205.999 23.7207C206.846 23.7207 207.579 23.9341 208.198 24.3608C208.822 24.7876 209.305 25.3906 209.645 26.1699C209.985 26.943 210.155 27.8646 210.155 28.9346V28.9531C210.155 30.0293 209.985 30.957 209.645 31.7363C209.311 32.5156 208.832 33.1156 208.207 33.5361C207.589 33.9567 206.853 34.167 205.999 34.167C205.535 34.167 205.102 34.0959 204.7 33.9536C204.298 33.8052 203.946 33.598 203.643 33.332C203.34 33.0661 203.098 32.7507 202.919 32.3857H202.771V37.3584H200.46ZM205.275 32.228C205.801 32.228 206.253 32.0981 206.63 31.8384C207.007 31.5724 207.295 31.1951 207.493 30.7065C207.697 30.2118 207.799 29.6273 207.799 28.9531V28.9346C207.799 28.2542 207.697 27.6698 207.493 27.1812C207.295 26.6925 207.007 26.3184 206.63 26.0586C206.253 25.7988 205.801 25.6689 205.275 25.6689C204.762 25.6689 204.314 25.8019 203.93 26.0679C203.547 26.3276 203.253 26.7018 203.049 27.1904C202.845 27.6729 202.743 28.2542 202.743 28.9346V28.9531C202.743 29.6273 202.845 30.2087 203.049 30.6973C203.259 31.1859 203.553 31.5632 203.93 31.8291C204.314 32.0951 204.762 32.228 205.275 32.228ZM212.41 37.3584V23.8877H214.72V25.4927H214.868C215.054 25.1154 215.295 24.7969 215.592 24.5371C215.895 24.2773 216.244 24.0763 216.64 23.9341C217.036 23.7918 217.472 23.7207 217.948 23.7207C218.796 23.7207 219.528 23.9341 220.147 24.3608C220.772 24.7876 221.254 25.3906 221.594 26.1699C221.934 26.943 222.104 27.8646 222.104 28.9346V28.9531C222.104 30.0293 221.934 30.957 221.594 31.7363C221.26 32.5156 220.781 33.1156 220.156 33.5361C219.538 33.9567 218.802 34.167 217.948 34.167C217.484 34.167 217.051 34.0959 216.649 33.9536C216.247 33.8052 215.895 33.598 215.592 33.332C215.289 33.0661 215.048 32.7507 214.868 32.3857H214.72V37.3584H212.41ZM217.225 32.228C217.75 32.228 218.202 32.0981 218.579 31.8384C218.956 31.5724 219.244 31.1951 219.442 30.7065C219.646 30.2118 219.748 29.6273 219.748 28.9531V28.9346C219.748 28.2542 219.646 27.6698 219.442 27.1812C219.244 26.6925 218.956 26.3184 218.579 26.0586C218.202 25.7988 217.75 25.6689 217.225 25.6689C216.711 25.6689 216.263 25.8019 215.879 26.0679C215.496 26.3276 215.202 26.7018 214.998 27.1904C214.794 27.6729 214.692 28.2542 214.692 28.9346V28.9531C214.692 29.6273 214.794 30.2087 214.998 30.6973C215.208 31.1859 215.502 31.5632 215.879 31.8291C216.263 32.0951 216.711 32.228 217.225 32.228ZM224.452 34V20.0005H226.762V34H224.452ZM233.933 34.2041C232.931 34.2041 232.068 33.9907 231.345 33.564C230.627 33.1372 230.074 32.5342 229.684 31.7549C229.294 30.9694 229.1 30.0417 229.1 28.9717V28.9624C229.1 27.8986 229.291 26.974 229.675 26.1885C230.064 25.3968 230.615 24.7845 231.326 24.3516C232.037 23.9124 232.869 23.6929 233.822 23.6929C234.787 23.6929 235.615 23.9032 236.308 24.3237C237.007 24.7443 237.542 25.335 237.913 26.0957C238.29 26.8564 238.479 27.744 238.479 28.7583V29.519H230.259V27.979H237.356L236.252 29.4263V28.5078C236.252 27.8337 236.15 27.277 235.946 26.8379C235.742 26.3926 235.461 26.0586 235.102 25.8359C234.743 25.6133 234.326 25.502 233.85 25.502C233.38 25.502 232.959 25.6164 232.588 25.8452C232.223 26.0741 231.932 26.4142 231.716 26.8657C231.506 27.311 231.4 27.8584 231.4 28.5078V29.4263C231.4 30.0509 231.506 30.5859 231.716 31.0312C231.926 31.4704 232.223 31.8075 232.606 32.0425C232.996 32.2775 233.454 32.395 233.979 32.395C234.394 32.395 234.75 32.3363 235.046 32.2188C235.343 32.0951 235.584 31.9466 235.77 31.7734C235.962 31.6003 236.092 31.4364 236.16 31.2817L236.197 31.2075H238.377L238.358 31.3003C238.278 31.6281 238.13 31.9621 237.913 32.3022C237.703 32.6424 237.415 32.9578 237.05 33.2485C236.692 33.533 236.252 33.765 235.733 33.9443C235.213 34.1175 234.613 34.2041 233.933 34.2041Z" fill="white"/>
<path d="M27.1133 21.7788C27.2923 21.7788 27.5975 21.8073 28.0288 21.8643C28.4601 21.9212 28.9321 22.084 29.4448 22.3525C29.9657 22.613 30.4377 23.0483 30.8608 23.6587C30.8364 23.6831 30.7184 23.7726 30.5068 23.9272C30.2952 24.0737 30.0592 24.2935 29.7988 24.5864C29.5384 24.8713 29.3105 25.2375 29.1152 25.6851C28.9199 26.1245 28.8223 26.6494 28.8223 27.2598C28.8223 27.9596 28.9443 28.5537 29.1885 29.042C29.4408 29.5303 29.7297 29.925 30.0552 30.2261C30.3888 30.519 30.6818 30.7347 30.9341 30.873C31.1945 31.0114 31.3328 31.0846 31.3491 31.0928C31.341 31.1253 31.2352 31.4142 31.0317 31.9595C30.8364 32.5047 30.5109 33.111 30.0552 33.7783C29.6564 34.3561 29.2251 34.8892 28.7612 35.3774C28.3055 35.8657 27.7562 36.1099 27.1133 36.1099C26.682 36.1099 26.328 36.0488 26.0513 35.9268C25.7746 35.7965 25.4897 35.6704 25.1968 35.5483C24.9038 35.4181 24.5091 35.353 24.0127 35.353C23.5326 35.353 23.1297 35.4181 22.8042 35.5483C22.4868 35.6785 22.1816 35.8088 21.8887 35.939C21.6038 36.0692 21.2661 36.1343 20.8755 36.1343C20.2814 36.1343 19.7606 35.8983 19.313 35.4263C18.8654 34.9543 18.4056 34.3887 17.9336 33.7295C17.3883 32.9482 16.9204 31.9961 16.5298 30.873C16.1473 29.7419 15.9561 28.6025 15.9561 27.4551C15.9561 26.2262 16.188 25.1968 16.6519 24.3667C17.1157 23.5285 17.7098 22.8978 18.4341 22.4746C19.1665 22.0433 19.9233 21.8276 20.7046 21.8276C21.1196 21.8276 21.5103 21.8968 21.8765 22.0352C22.2427 22.1654 22.5845 22.2996 22.9019 22.438C23.2274 22.5763 23.5203 22.6455 23.7808 22.6455C24.033 22.6455 24.326 22.5723 24.6597 22.4258C24.9933 22.2793 25.3677 22.1369 25.7827 21.9985C26.1978 21.8521 26.6413 21.7788 27.1133 21.7788ZM26.4419 20.2285C26.1245 20.611 25.7257 20.9325 25.2456 21.1929C24.7655 21.4451 24.3097 21.5713 23.8784 21.5713C23.7889 21.5713 23.7035 21.5632 23.6221 21.5469C23.6139 21.5225 23.6058 21.4777 23.5977 21.4126C23.5895 21.3475 23.5854 21.2783 23.5854 21.2051C23.5854 20.7168 23.6912 20.2448 23.9028 19.7891C24.1144 19.3252 24.3545 18.9427 24.623 18.6416C24.9648 18.2347 25.3962 17.897 25.917 17.6284C26.4378 17.3599 26.9342 17.2174 27.4062 17.2012C27.4307 17.307 27.4429 17.4331 27.4429 17.5796C27.4429 18.0679 27.3493 18.5439 27.1621 19.0078C26.9749 19.4635 26.7349 19.8704 26.4419 20.2285Z" fill="white"/>
</svg>
