<svg width="71" height="71" viewBox="0 0 71 71" fill="none" xmlns="http://www.w3.org/2000/svg">
<g filter="url(#filter0_d_1225_10733)">
<rect x="21" y="12" width="28" height="37" fill="white"/>
<path d="M35.5 56.2754C21.7793 56.2754 10.5977 45.0938 10.5977 31.373C10.5977 17.6279 21.7793 6.4707 35.5 6.4707C49.2451 6.4707 60.4023 17.6279 60.4023 31.373C60.4023 45.0938 49.2451 56.2754 35.5 56.2754ZM36.7207 20.9727C38.3809 20.9727 39.7725 19.5811 39.7725 17.8965C39.7725 16.2119 38.3809 14.8447 36.7207 14.8447C35.0117 14.8447 33.6201 16.2119 33.6201 17.8965C33.6201 19.5811 35.0117 20.9727 36.7207 20.9727ZM39.9922 45.6797C40.8955 47.4863 43.6055 46.3633 42.6045 44.3857L39.6504 38.3311C39.4062 37.916 39.1133 37.4033 38.8447 37.0371L36.916 34.3027L37.0625 33.9365C37.5996 32.4229 37.7705 31.5195 37.8682 30.0059L38.1611 25.8311C38.3076 23.7803 37.1357 22.2666 35.0605 22.2666C33.5225 22.2666 32.4971 23.0479 31.0566 24.4395L28.835 26.6367C28.1025 27.3691 27.8828 27.9795 27.8096 28.8828L27.5654 32.3496C27.4922 33.2041 27.9561 33.8145 28.7617 33.8389C29.5674 33.9121 30.0557 33.4238 30.1533 32.4961L30.4707 28.6875L31.5449 27.7598C31.9355 27.418 32.4482 27.6133 32.4238 28.0527L32.1797 31.251C32.0576 32.8379 32.4482 33.6436 33.5469 35.0107L36.501 38.7217C36.7939 39.0635 36.8184 39.2344 36.9404 39.4785L39.9922 45.6797ZM45.0947 28.0039H41.7012L39.6016 25.6357L39.333 29.127L40.1875 29.9814C40.6758 30.4697 41.0664 30.5918 41.9453 30.5918H45.0947C45.9736 30.5918 46.5352 30.1035 46.5352 29.2979C46.5352 28.4922 45.9736 28.0039 45.0947 28.0039ZM29.3477 46.0703L33.7178 40.8701C34.1328 40.3574 34.2061 40.2354 34.377 39.6982L34.6699 38.7217L32.375 35.7432L31.6426 39.0635L27.3213 44.2148C25.9297 45.8506 28.1758 47.4619 29.3477 46.0703Z" fill="black"/>
</g>
<defs>
<filter id="filter0_d_1225_10733" x="-4" y="0.470703" width="79" height="69.8047" filterUnits="userSpaceOnUse" color-interpolation-filters="sRGB">
<feFlood flood-opacity="0" result="BackgroundImageFix"/>
<feColorMatrix in="SourceAlpha" type="matrix" values="0 0 0 0 0 0 0 0 0 0 0 0 0 0 0 0 0 0 127 0" result="hardAlpha"/>
<feOffset dy="4"/>
<feGaussianBlur stdDeviation="5"/>
<feComposite in2="hardAlpha" operator="out"/>
<feColorMatrix type="matrix" values="0 0 0 0 0 0 0 0 0 0 0 0 0 0 0 0 0 0 0.25 0"/>
<feBlend mode="normal" in2="BackgroundImageFix" result="effect1_dropShadow_1225_10733"/>
<feBlend mode="normal" in="SourceGraphic" in2="effect1_dropShadow_1225_10733" result="shape"/>
</filter>
</defs>
</svg>
