<svg width="40" height="40" viewBox="0 0 40 40" fill="none" xmlns="http://www.w3.org/2000/svg">
<rect width="40" height="40" rx="20" fill="#00D098"/>
<path d="M19.5739 25.571C18.2457 25.571 17.0348 25.3473 15.9411 24.8999C14.8473 24.4524 13.9063 23.8203 13.1179 23.0036C12.3295 22.1868 11.7223 21.2209 11.2962 20.1058C10.87 18.9908 10.657 17.7585 10.657 16.4091V14.2464C10.657 13.4013 11.0511 12.6591 11.8395 12.0199C12.6278 11.3807 13.7251 10.8835 15.1314 10.5284C16.5447 10.1662 18.1854 9.98509 20.0533 9.98509C21.9212 9.98509 23.5582 10.1662 24.9645 10.5284C26.3778 10.8835 27.4787 11.3807 28.267 12.0199C29.0554 12.6591 29.4496 13.4013 29.4496 14.2464V16.4091C29.4496 17.8011 29.2365 19.0618 28.8104 20.1911C28.3842 21.3132 27.777 22.2756 26.9886 23.0781C26.2003 23.8807 25.2592 24.4986 24.1655 24.9318C23.0788 25.358 21.8679 25.571 20.5327 25.571H19.5739ZM20.0533 16.8459C21.5447 16.8459 22.8729 16.7322 24.0376 16.505C25.2024 16.2706 26.1186 15.9581 26.7862 15.5675C27.4609 15.1768 27.7983 14.7365 27.7983 14.2464C27.7983 13.7564 27.4609 13.3161 26.7862 12.9254C26.1186 12.5348 25.2024 12.2259 24.0376 11.9986C22.8729 11.7642 21.5447 11.647 20.0533 11.647C18.5689 11.647 17.2443 11.7642 16.0795 11.9986C14.9148 12.2259 13.995 12.5348 13.3203 12.9254C12.6527 13.3161 12.3189 13.7564 12.3189 14.2464C12.3189 14.7365 12.6527 15.1768 13.3203 15.5675C13.995 15.9581 14.9148 16.2706 16.0795 16.505C17.2443 16.7322 18.5689 16.8459 20.0533 16.8459ZM28.299 20.8622V19.2109H29.1406C29.8153 19.2109 30.3409 19.0653 30.7173 18.7741C31.0938 18.4759 31.282 18.0675 31.282 17.549C31.282 17.0305 31.0938 16.6257 30.7173 16.3345C30.3409 16.0362 29.8153 15.8871 29.1406 15.8871H28.4588V14.2358H29.1406C30.3196 14.2358 31.2464 14.5305 31.9212 15.12C32.603 15.7095 32.9439 16.5192 32.9439 17.549C32.9439 18.5788 32.6065 19.3885 31.9318 19.978C31.2571 20.5675 30.3267 20.8622 29.1406 20.8622H28.299ZM20 30.674C17.9759 30.674 16.1186 30.5391 14.4283 30.2692C12.745 29.9993 11.2855 29.6122 10.0497 29.108C8.81392 28.6037 7.85511 28.0071 7.1733 27.3182C6.49858 26.6293 6.16122 25.8658 6.16122 25.0277C6.16122 24.1683 6.51989 23.3871 7.23722 22.6839C7.95455 21.9737 8.95952 21.3665 10.2521 20.8622C10.7635 22.0767 11.4702 23.1278 12.3722 24.0156C13.2741 24.9034 14.3359 25.5923 15.5575 26.0824C16.7791 26.5724 18.1179 26.8175 19.5739 26.8175H20.5327C22.5 26.8175 24.233 26.402 25.7315 25.571C27.2372 24.7401 28.4126 23.5859 29.2578 22.1087C29.6626 22.0945 30.0391 22.0518 30.3871 21.9808C30.7422 21.9098 31.0795 21.8068 31.3991 21.6719C32.1733 22.1264 32.7734 22.6378 33.1996 23.206C33.6257 23.7741 33.8388 24.3814 33.8388 25.0277C33.8388 25.8658 33.5014 26.6293 32.8267 27.3182C32.152 28.0071 31.1967 28.6037 29.9609 29.108C28.7251 29.6122 27.2621 29.9993 25.5717 30.2692C23.8814 30.5391 22.0241 30.674 20 30.674Z" fill="white"/>
</svg>
