<svg width="30" height="30" viewBox="0 0 30 30" fill="none" xmlns="http://www.w3.org/2000/svg">
<circle cx="15" cy="15" r="10" fill="#00D098"/>
<path d="M10.5034 22.8511C9.96387 22.8511 9.76465 22.4692 9.85596 22.021L11.4082 14.1187C11.5078 13.5957 11.9478 13.2139 12.4541 13.2139H12.4873L14.3301 7.71875C14.4463 7.37012 14.7036 7.1709 15.0771 7.1709C15.4341 7.1709 15.6665 7.37012 15.791 7.71875L17.6338 13.2139H17.6753C18.1816 13.2139 18.6216 13.5957 18.7212 14.1187L20.2734 22.021C20.3647 22.4692 20.1738 22.8511 19.6177 22.8511C19.2275 22.8511 19.0366 22.6436 18.9702 22.3032L17.4595 14.6084H12.6616L11.1509 22.3032C11.0845 22.6436 10.8936 22.8511 10.5034 22.8511Z" fill="white"/>
<circle cx="15" cy="15" r="14.5" stroke="#00D098"/>
</svg>
