<svg width="28" height="28" viewBox="0 0 28 28" fill="none" xmlns="http://www.w3.org/2000/svg">
<circle cx="14" cy="14" r="14" fill="#4E4E4E"/>
<path d="M8.89746 23.0688C8.29443 23.0688 8.07178 22.6421 8.17383 22.1411L9.90869 13.3091C10.02 12.7246 10.5117 12.2979 11.0776 12.2979H11.1147L13.1743 6.15625C13.3042 5.7666 13.5918 5.54395 14.0093 5.54395C14.4082 5.54395 14.668 5.7666 14.8071 6.15625L16.8667 12.2979H16.9131C17.479 12.2979 17.9707 12.7246 18.082 13.3091L19.8169 22.1411C19.9189 22.6421 19.7056 23.0688 19.084 23.0688C18.6479 23.0688 18.4346 22.8369 18.3604 22.4565L16.6719 13.8564H11.3096L9.62109 22.4565C9.54688 22.8369 9.3335 23.0688 8.89746 23.0688Z" fill="white"/>
</svg>
