<svg width="30" height="30" viewBox="0 0 30 30" fill="none" xmlns="http://www.w3.org/2000/svg">
<circle cx="15" cy="15" r="10" fill="#00D098"/>
<path d="M15 0.5C23.0081 0.5 29.5 6.99187 29.5 15C29.5 23.0081 23.0081 29.5 15 29.5C6.99187 29.5 0.5 23.0081 0.5 15C0.5 6.99187 6.99187 0.5 15 0.5Z" stroke="#00D098"/>
<path d="M10.1875 14.0781L16.1562 8.10938C16.8516 7.41406 17.8359 7.42188 18.5469 8.13281L22.6641 12.2578C23.375 12.9688 23.3906 13.9531 22.6953 14.6484L16.7266 20.6172L10.1875 14.0781ZM8.72656 19.25C7.54688 18.0781 7.50781 16.75 8.61719 15.6328L9.42969 14.8281L15.9766 21.3672L15.1562 22.1797C14.0469 23.2891 12.7266 23.2422 11.5469 22.0781L8.72656 19.25Z" fill="white"/>
</svg>
