<svg width="60" height="60" viewBox="0 0 60 60" fill="none" xmlns="http://www.w3.org/2000/svg">
<g filter="url(#filter0_d_846_7716)">
<rect x="10" y="6" width="40" height="40" rx="20" fill="url(#paint0_linear_846_7716)" shape-rendering="crispEdges"/>
<rect x="10.5" y="6.5" width="39" height="39" rx="19.5" stroke="white" shape-rendering="crispEdges"/>
<path d="M26.3352 37.8778C25.8878 37.8778 25.5362 37.7571 25.2805 37.5156C25.0249 37.2741 24.9006 36.9368 24.9077 36.5036L25.1101 24.5398C25.1101 24.3551 25.071 24.1953 24.9929 24.0604C24.9148 23.9183 24.7905 23.8118 24.62 23.7408C24.1513 23.5348 23.7678 23.3111 23.4695 23.0696C23.1783 22.821 22.9688 22.505 22.8409 22.1214C22.7131 21.7379 22.6634 21.2337 22.6918 20.6087L22.9794 14.0675C22.9936 13.8331 23.0646 13.652 23.1925 13.5241C23.3203 13.3963 23.4943 13.3324 23.7145 13.3324C23.9276 13.3324 24.0909 13.3999 24.2045 13.5348C24.3253 13.6626 24.3857 13.8473 24.3857 14.0888L24.3111 20.4489C24.3111 20.8537 24.5099 21.0561 24.9077 21.0561C25.0852 21.0561 25.2308 21.0064 25.3445 20.907C25.4652 20.8004 25.5256 20.6584 25.5256 20.4808L25.6321 13.897C25.6321 13.6697 25.696 13.4922 25.8239 13.3643C25.9517 13.2365 26.1222 13.1726 26.3352 13.1726C26.5554 13.1726 26.7259 13.2365 26.8466 13.3643C26.9744 13.4922 27.0419 13.6697 27.049 13.897L27.1555 20.4808C27.1555 20.6584 27.2124 20.8004 27.326 20.907C27.4396 21.0064 27.5888 21.0561 27.7734 21.0561C27.9439 21.0561 28.0824 21.0028 28.1889 20.8963C28.3026 20.7898 28.3594 20.6406 28.3594 20.4489L28.2848 14.0888C28.2848 13.8473 28.3452 13.6626 28.4659 13.5348C28.5866 13.3999 28.75 13.3324 28.956 13.3324C29.4247 13.3324 29.6697 13.5774 29.6911 14.0675L29.9893 20.6087C30.0107 21.2337 29.9574 21.7379 29.8295 22.1214C29.7017 22.505 29.4886 22.821 29.1903 23.0696C28.8991 23.3111 28.5192 23.5348 28.0504 23.7408C27.8871 23.8118 27.7628 23.9183 27.6776 24.0604C27.5994 24.1953 27.5604 24.3551 27.5604 24.5398L27.7734 36.5036C27.7734 36.9368 27.6456 37.2741 27.3899 37.5156C27.1342 37.7571 26.7827 37.8778 26.3352 37.8778ZM34.6768 28.5881C34.6839 28.3963 34.6413 28.2259 34.549 28.0767C34.4638 27.9205 34.3288 27.7749 34.1442 27.6399L33.505 27.2138C33.2422 27.0362 33.0433 26.8125 32.9084 26.5426C32.7734 26.2727 32.706 25.9531 32.706 25.5838V25.0618C32.706 23.9964 32.7734 22.9311 32.9084 21.8658C33.0433 20.8004 33.2351 19.7741 33.4837 18.7869C33.7393 17.7926 34.0412 16.88 34.3892 16.049C34.7372 15.2109 35.1243 14.4901 35.5504 13.8864C35.728 13.6378 35.8913 13.4567 36.0405 13.343C36.1896 13.2294 36.3636 13.1726 36.5625 13.1726C36.7614 13.1726 36.9389 13.2401 37.0952 13.375C37.2514 13.5028 37.3295 13.7017 37.3295 13.9716V36.5675C37.3295 36.9936 37.1982 37.3168 36.9354 37.5369C36.6726 37.7642 36.3175 37.8778 35.87 37.8778C35.4297 37.8778 35.0781 37.7536 34.8153 37.505C34.5526 37.2635 34.4283 36.9119 34.4425 36.4503L34.6768 28.5881Z" fill="white"/>
</g>
<defs>
<filter id="filter0_d_846_7716" x="0" y="0" width="60" height="60" filterUnits="userSpaceOnUse" color-interpolation-filters="sRGB">
<feFlood flood-opacity="0" result="BackgroundImageFix"/>
<feColorMatrix in="SourceAlpha" type="matrix" values="0 0 0 0 0 0 0 0 0 0 0 0 0 0 0 0 0 0 127 0" result="hardAlpha"/>
<feOffset dy="4"/>
<feGaussianBlur stdDeviation="5"/>
<feComposite in2="hardAlpha" operator="out"/>
<feColorMatrix type="matrix" values="0 0 0 0 0 0 0 0 0 0 0 0 0 0 0 0 0 0 0.25 0"/>
<feBlend mode="normal" in2="BackgroundImageFix" result="effect1_dropShadow_846_7716"/>
<feBlend mode="normal" in="SourceGraphic" in2="effect1_dropShadow_846_7716" result="shape"/>
</filter>
<linearGradient id="paint0_linear_846_7716" x1="30" y1="6" x2="30" y2="46" gradientUnits="userSpaceOnUse">
<stop stop-color="#FF8000"/>
<stop offset="1" stop-color="#F04C00"/>
</linearGradient>
</defs>
</svg>
