<svg width="40" height="40" viewBox="0 0 40 40" fill="none" xmlns="http://www.w3.org/2000/svg">
<rect width="40" height="40" rx="20" fill="#00D098"/>
<path d="M8.92045 29.1719V14.8324C8.92045 14.4773 8.99503 14.1719 9.14418 13.9162C9.30043 13.6534 9.53835 13.4332 9.85795 13.2557L14.9077 10.358C15 10.3011 15.0994 10.2479 15.206 10.1982C15.3125 10.1413 15.4119 10.0916 15.5043 10.049V27.7017L11.0298 30.12C10.696 30.3047 10.3977 30.397 10.1349 30.397C9.75142 30.397 9.45313 30.2905 9.24006 30.0774C9.02699 29.8643 8.92045 29.5625 8.92045 29.1719ZM16.9638 27.4993V9.8679C17.0632 9.8892 17.1626 9.92116 17.2621 9.96378C17.3686 10.0064 17.468 10.0561 17.5604 10.1129L22.8232 13.3303V30.7166C22.745 30.6953 22.6634 30.6669 22.5781 30.6314C22.5 30.5959 22.4183 30.5568 22.3331 30.5142L16.9638 27.4993ZM24.272 30.6847V13.1278L28.9702 10.5178C29.304 10.3331 29.6023 10.2408 29.8651 10.2408C30.2486 10.2408 30.5469 10.3473 30.7599 10.5604C30.973 10.7734 31.0795 11.0753 31.0795 11.4659V25.8161C31.0795 26.1712 31.0014 26.4801 30.8452 26.7429C30.696 26.9986 30.4616 27.2152 30.142 27.3928L24.5916 30.5462C24.5419 30.5746 24.4886 30.5994 24.4318 30.6207C24.3821 30.6491 24.3288 30.6705 24.272 30.6847Z" fill="white"/>
</svg>
