<svg width="40" height="40" viewBox="0 0 40 40" fill="none" xmlns="http://www.w3.org/2000/svg">
<rect width="40" height="40" rx="20" fill="#4E4E4E"/>
<path d="M16.3352 31.8778C15.8878 31.8778 15.5362 31.7571 15.2805 31.5156C15.0249 31.2741 14.9006 30.9368 14.9077 30.5036L15.1101 18.5398C15.1101 18.3551 15.071 18.1953 14.9929 18.0604C14.9148 17.9183 14.7905 17.8118 14.62 17.7408C14.1513 17.5348 13.7678 17.3111 13.4695 17.0696C13.1783 16.821 12.9688 16.505 12.8409 16.1214C12.7131 15.7379 12.6634 15.2337 12.6918 14.6087L12.9794 8.06747C12.9936 7.8331 13.0646 7.65199 13.1925 7.52415C13.3203 7.39631 13.4943 7.33239 13.7145 7.33239C13.9276 7.33239 14.0909 7.39986 14.2045 7.5348C14.3253 7.66264 14.3857 7.8473 14.3857 8.08878L14.3111 14.4489C14.3111 14.8537 14.5099 15.0561 14.9077 15.0561C15.0852 15.0561 15.2308 15.0064 15.3445 14.907C15.4652 14.8004 15.5256 14.6584 15.5256 14.4808L15.6321 7.89702C15.6321 7.66974 15.696 7.49219 15.8239 7.36435C15.9517 7.23651 16.1222 7.17259 16.3352 7.17259C16.5554 7.17259 16.7259 7.23651 16.8466 7.36435C16.9744 7.49219 17.0419 7.66974 17.049 7.89702L17.1555 14.4808C17.1555 14.6584 17.2124 14.8004 17.326 14.907C17.4396 15.0064 17.5888 15.0561 17.7734 15.0561C17.9439 15.0561 18.0824 15.0028 18.1889 14.8963C18.3026 14.7898 18.3594 14.6406 18.3594 14.4489L18.2848 8.08878C18.2848 7.8473 18.3452 7.66264 18.4659 7.5348C18.5866 7.39986 18.75 7.33239 18.956 7.33239C19.4247 7.33239 19.6697 7.57741 19.6911 8.06747L19.9893 14.6087C20.0107 15.2337 19.9574 15.7379 19.8295 16.1214C19.7017 16.505 19.4886 16.821 19.1903 17.0696C18.8991 17.3111 18.5192 17.5348 18.0504 17.7408C17.8871 17.8118 17.7628 17.9183 17.6776 18.0604C17.5994 18.1953 17.5604 18.3551 17.5604 18.5398L17.7734 30.5036C17.7734 30.9368 17.6456 31.2741 17.3899 31.5156C17.1342 31.7571 16.7827 31.8778 16.3352 31.8778ZM24.6768 22.5881C24.6839 22.3963 24.6413 22.2259 24.549 22.0767C24.4638 21.9205 24.3288 21.7749 24.1442 21.6399L23.505 21.2138C23.2422 21.0362 23.0433 20.8125 22.9084 20.5426C22.7734 20.2727 22.706 19.9531 22.706 19.5838V19.0618C22.706 17.9964 22.7734 16.9311 22.9084 15.8658C23.0433 14.8004 23.2351 13.7741 23.4837 12.7869C23.7393 11.7926 24.0412 10.88 24.3892 10.049C24.7372 9.21094 25.1243 8.49006 25.5504 7.88636C25.728 7.63778 25.8913 7.45668 26.0405 7.34304C26.1896 7.2294 26.3636 7.17259 26.5625 7.17259C26.7614 7.17259 26.9389 7.24006 27.0952 7.375C27.2514 7.50284 27.3295 7.7017 27.3295 7.97159V30.5675C27.3295 30.9936 27.1982 31.3168 26.9354 31.5369C26.6726 31.7642 26.3175 31.8778 25.87 31.8778C25.4297 31.8778 25.0781 31.7536 24.8153 31.505C24.5526 31.2635 24.4283 30.9119 24.4425 30.4503L24.6768 22.5881Z" fill="white"/>
</svg>
