<svg width="865" height="667" viewBox="0 0 865 667" fill="none" xmlns="http://www.w3.org/2000/svg">
<g filter="url(#filter0_d_1145_5579)">
<rect x="4" y="66" width="857" height="593" rx="36" fill="#F5F5F5"/>
</g>
<path d="M153.531 24.0273C181.809 33.5974 195.143 68.9139 180.912 104.135C166.681 139.356 131.449 158.236 103.171 148.666C74.8931 139.095 61.5582 103.779 75.789 68.5579C90.02 33.3369 125.253 14.4573 153.531 24.0273Z" stroke="#F5F5F5" stroke-width="10"/>
<path d="M165.531 24.0273C193.809 33.5974 207.143 68.9139 192.912 104.135C178.681 139.356 143.449 158.236 115.171 148.666C86.8931 139.095 73.5582 103.779 87.789 68.5579C102.02 33.3369 137.253 14.4573 165.531 24.0273Z" stroke="#A190F1" stroke-width="10"/>
<path d="M238.531 24.0273C266.809 33.5974 280.143 68.9139 265.912 104.135C251.681 139.356 216.449 158.236 188.171 148.666C159.893 139.095 146.558 103.779 160.789 68.5579C175.02 33.3369 210.253 14.4573 238.531 24.0273Z" stroke="#F5F5F5" stroke-width="10"/>
<path d="M250.531 24.0273C278.809 33.5974 292.143 68.9139 277.912 104.135C263.681 139.356 228.449 158.236 200.171 148.666C171.893 139.095 158.558 103.779 172.789 68.5579C187.02 33.3369 222.253 14.4573 250.531 24.0273Z" stroke="#A190F1" stroke-width="10"/>
<path d="M323.531 24.0273C351.809 33.5974 365.143 68.9139 350.912 104.135C336.681 139.356 301.449 158.236 273.171 148.666C244.893 139.095 231.558 103.779 245.789 68.5579C260.02 33.3369 295.253 14.4573 323.531 24.0273Z" stroke="#F5F5F5" stroke-width="10"/>
<path d="M335.531 24.0273C363.809 33.5974 377.143 68.9139 362.912 104.135C348.681 139.356 313.449 158.236 285.171 148.666C256.893 139.095 243.558 103.779 257.789 68.5579C272.02 33.3369 307.253 14.4573 335.531 24.0273Z" stroke="#A190F1" stroke-width="10"/>
<path d="M408.531 24.0273C436.809 33.5974 450.143 68.9139 435.912 104.135C421.681 139.356 386.449 158.236 358.171 148.666C329.893 139.095 316.558 103.779 330.789 68.5579C345.02 33.3369 380.253 14.4573 408.531 24.0273Z" stroke="#F5F5F5" stroke-width="10"/>
<path d="M420.531 24.0273C448.809 33.5974 462.143 68.9139 447.912 104.135C433.681 139.356 398.449 158.236 370.171 148.666C341.893 139.095 328.558 103.779 342.789 68.5579C357.02 33.3369 392.253 14.4573 420.531 24.0273Z" stroke="#A190F1" stroke-width="10"/>
<path d="M493.531 24.0273C521.809 33.5974 535.143 68.9139 520.912 104.135C506.681 139.356 471.449 158.236 443.171 148.666C414.893 139.095 401.558 103.779 415.789 68.5579C430.02 33.3369 465.253 14.4573 493.531 24.0273Z" stroke="#F5F5F5" stroke-width="10"/>
<path d="M505.531 24.0273C533.809 33.5974 547.143 68.9139 532.912 104.135C518.681 139.356 483.449 158.236 455.171 148.666C426.893 139.095 413.558 103.779 427.789 68.5579C442.02 33.3369 477.253 14.4573 505.531 24.0273Z" stroke="#A190F1" stroke-width="10"/>
<path d="M578.531 24.0273C606.809 33.5974 620.143 68.9139 605.912 104.135C591.681 139.356 556.449 158.236 528.171 148.666C499.893 139.095 486.558 103.779 500.789 68.5579C515.02 33.3369 550.253 14.4573 578.531 24.0273Z" stroke="#F5F5F5" stroke-width="10"/>
<path d="M590.531 24.0273C618.809 33.5974 632.143 68.9139 617.912 104.135C603.681 139.356 568.449 158.236 540.171 148.666C511.893 139.095 498.558 103.779 512.789 68.5579C527.02 33.3369 562.253 14.4573 590.531 24.0273Z" stroke="#A190F1" stroke-width="10"/>
<path d="M663.531 24.0273C691.809 33.5974 705.143 68.9139 690.912 104.135C676.681 139.356 641.449 158.236 613.171 148.666C584.893 139.095 571.558 103.779 585.789 68.5579C600.02 33.3369 635.253 14.4573 663.531 24.0273Z" stroke="#F5F5F5" stroke-width="10"/>
<path d="M675.531 24.0273C703.809 33.5974 717.143 68.9139 702.912 104.135C688.681 139.356 653.449 158.236 625.171 148.666C596.893 139.095 583.558 103.779 597.789 68.5579C612.02 33.3369 647.253 14.4573 675.531 24.0273Z" stroke="#A190F1" stroke-width="10"/>
<path d="M748.531 24.0273C776.809 33.5974 790.143 68.9139 775.912 104.135C761.681 139.356 726.449 158.236 698.171 148.666C669.893 139.095 656.558 103.779 670.789 68.5579C685.02 33.3369 720.253 14.4573 748.531 24.0273Z" stroke="#F5F5F5" stroke-width="10"/>
<path d="M760.531 24.0273C788.809 33.5974 802.143 68.9139 787.912 104.135C773.681 139.356 738.449 158.236 710.171 148.666C681.893 139.095 668.558 103.779 682.789 68.5579C697.02 33.3369 732.253 14.4573 760.531 24.0273Z" stroke="#A190F1" stroke-width="10"/>
<defs>
<filter id="filter0_d_1145_5579" x="0" y="66" width="865" height="601" filterUnits="userSpaceOnUse" color-interpolation-filters="sRGB">
<feFlood flood-opacity="0" result="BackgroundImageFix"/>
<feColorMatrix in="SourceAlpha" type="matrix" values="0 0 0 0 0 0 0 0 0 0 0 0 0 0 0 0 0 0 127 0" result="hardAlpha"/>
<feOffset dy="4"/>
<feGaussianBlur stdDeviation="2"/>
<feComposite in2="hardAlpha" operator="out"/>
<feColorMatrix type="matrix" values="0 0 0 0 0 0 0 0 0 0 0 0 0 0 0 0 0 0 0.25 0"/>
<feBlend mode="normal" in2="BackgroundImageFix" result="effect1_dropShadow_1145_5579"/>
<feBlend mode="normal" in="SourceGraphic" in2="effect1_dropShadow_1145_5579" result="shape"/>
</filter>
</defs>
</svg>
